<?xml version="1.0" standalone="no"?>
<!DOCTYPE svg PUBLIC "-//W3C//DTD SVG 20010904//EN"
 "http://www.w3.org/TR/2001/REC-SVG-20010904/DTD/svg10.dtd">
<svg version="1.0" xmlns="http://www.w3.org/2000/svg"
 width="500.000000pt" height="500.000000pt" viewBox="0 0 500.000000 500.000000"
 preserveAspectRatio="xMidYMid meet">

<g transform="translate(0.000000,500.000000) scale(0.100000,-0.100000)"
fill="#000000" stroke="none">
<path d="M0 2500 l0 -2500 2500 0 2500 0 0 2500 0 2500 -2500 0 -2500 0 0
-2500z m1410 1133 c0 -7 -28 -166 -36 -200 -4 -21 -10 -23 -62 -23 -68 0 -119
-23 -144 -65 -23 -41 -38 -141 -38 -262 0 -125 -15 -240 -41 -309 -25 -67 -98
-136 -163 -154 -26 -7 -46 -15 -46 -19 1 -3 24 -17 53 -31 126 -61 128 -207 8
-511 -61 -157 -70 -205 -43 -239 18 -22 29 -25 101 -28 93 -5 88 7 63 -132
l-17 -95 -115 0 c-108 0 -118 2 -167 29 -90 50 -129 132 -120 251 4 54 19 110
61 221 56 151 86 256 86 307 0 47 -55 94 -120 103 l-52 7 5 46 c3 25 11 76 17
114 11 61 15 68 39 72 124 24 151 41 184 114 16 37 21 79 28 248 17 394 68
503 254 549 53 13 265 19 265 7z m2790 -19 c89 -41 130 -103 138 -206 6 -81
-4 -123 -69 -297 -95 -251 -98 -330 -16 -370 24 -12 53 -21 64 -21 50 0 51 -3
32 -118 -11 -59 -19 -110 -19 -114 0 -5 -17 -8 -37 -8 -46 -1 -107 -22 -135
-47 -49 -43 -60 -95 -69 -309 -11 -299 -36 -401 -113 -479 -61 -60 -115 -77
-273 -82 -73 -3 -133 -3 -133 -1 0 2 9 53 20 113 11 60 20 110 20 112 0 2 28
3 63 3 80 0 121 24 149 87 16 37 21 78 28 232 12 255 35 345 107 413 31 29
106 67 138 69 14 0 10 5 -15 16 -101 43 -137 107 -127 226 8 86 23 141 88 310
61 157 69 203 41 237 -18 22 -29 25 -101 28 -45 2 -81 9 -81 14 0 14 31 190
36 207 7 22 207 11 264 -15z m-2027 -211 c3 -16 40 -315 83 -665 43 -351 82
-634 85 -630 4 4 145 297 314 652 169 355 312 651 318 658 12 16 457 18 457 2
0 -6 -197 -384 -437 -840 l-438 -830 -284 2 -285 3 -143 815 c-78 448 -143
825 -143 838 l0 22 234 0 234 0 5 -27z"/>
</g>
</svg>
